Coordinates
version=1
nRows=10
nColumns=63
inDegrees=yes

Units are S.I. units (second, meters, Newtons, ...)
If the header above contains a line with 'inDegrees', this indicates whether rotational values are in degrees (yes) or radians (no).

endheader
time	pelvis_tilt	pelvis_list	pelvis_rotation	pelvis_tx	pelvis_ty	pelvis_tz	hip_flexion_r	hip_adduction_r	hip_rotation_r	knee_angle_r	knee_angle_r_beta	ankle_angle_r	subtalar_angle_r	mtp_angle_r	hip_flexion_l	hip_adduction_l	hip_rotation_l	knee_angle_l	knee_angle_l_beta	ankle_angle_l	subtalar_angle_l	mtp_angle_l	L5_S1_Flex_Ext	L5_S1_Lat_Bending	L5_S1_axial_rotation	L4_L5_Flex_Ext	L4_L5_Lat_Bending	L4_L5_axial_rotation	L3_L4_Flex_Ext	L3_L4_Lat_Bending	L3_L4_axial_rotation	L2_L3_Flex_Ext	L2_L3_Lat_Bending	L2_L3_axial_rotation	L1_L2_Flex_Ext	L1_L2_Lat_Bending	L1_L2_axial_rotation	L1_T12_Flex_Ext	L1_T12_Lat_Bending	L1_T12_axial_rotation	Abs_r3	Abs_r2	Abs_r1	Abs_t1	Abs_t2	neck_flexion	neck_bending	neck_rotation	arm_flex_r	arm_add_r	arm_rot_r	elbow_flex_r	pro_sup_r	wrist_flex_r	wrist_dev_r	arm_flex_l	arm_add_l	arm_rot_l	elbow_flex_l	pro_sup_l	wrist_flex_l	wrist_dev_l
      3.38095238	     -4.91009175	      2.76291056	     79.92472941	      0.25354878	      0.82932124	      0.70550141	      7.50309962	     -2.67599327	     16.37838791	     14.16457358	      0.24721845	     18.01060380	     -9.15437199	      0.00000000	      0.80874457	      2.28410215	    -19.75000444	      4.24034773	      0.07400803	     18.96208399	      9.55718451	      0.00000000	     -0.48079683	     -0.85690814	      2.97136271	     -0.89288779	     -1.13968782	      3.15707288	     -0.78990111	     -2.08348645	      3.15707288	     -0.54950269	     -2.08348645	      2.59994237	     -0.44646793	     -1.74740708	      2.41423220	     -0.27472731	     -1.32735071	      2.22852203	     -3.43428366	     -9.69351625	     16.52582797	      0.00000000	      0.00000000	     -2.71559031	      1.13607077	     -3.50889568	     82.37983503	    -31.64701607	     12.20516480	     82.28317577	     71.57934438	     -6.91229073	      8.72718162	     89.76862234	    -25.80785518	     34.67190605	    116.75606752	     86.00910214	    -13.11546161	     17.71788857
      3.40476190	     -5.12437900	      2.54797609	     80.32170172	      0.25383458	      0.83018419	      0.70558968	      7.93370490	     -2.82862459	     15.95971146	     14.46332231	      0.25243260	     18.11065710	     -8.94389121	      0.00000000	      1.14173414	      2.40828939	    -19.12283333	      4.26009893	      0.07435275	     19.25999038	      9.18159019	      0.00000000	     -0.47229507	     -0.88924102	      3.64793671	     -0.87709918	     -1.18269055	      3.87593276	     -0.77593357	     -2.16210061	      3.87593276	     -0.53978604	     -2.16210061	      3.19194462	     -0.43857320	     -1.81334029	      2.96394858	     -0.26986940	     -1.37743434	      2.73595254	     -3.37355646	    -10.05927225	     20.28872962	      0.00000000	      0.00000000	     -2.52383613	      0.62043556	     -5.08332247	     73.84724650	    -35.16554124	      2.62835223	     97.13413849	     78.81847409	      0.41612952	     10.00887299	     90.58236192	    -21.60255299	     30.95413457	    106.42927719	     83.83723342	    -16.60074922	     18.40405960
      3.42857143	     -5.24111675	      2.45405731	     80.79918820	      0.25396922	      0.83047511	      0.70538064	      8.21601887	     -2.90953092	     15.51194978	     14.89091120	      0.25989543	     18.42272010	     -8.87838506	      0.00000000	      1.30234624	      2.46466126	    -18.29980101	      4.33040175	      0.07557977	     19.58332110	      8.77716957	      0.00000000	     -0.46125412	     -0.91841728	      4.27928935	     -0.85659503	     -1.22149498	      4.54674494	     -0.75779439	     -2.23303976	      4.54674494	     -0.52716733	     -2.23303976	      3.74437818	     -0.42832058	     -1.87283651	      3.47692260	     -0.26356060	     -1.42262836	      3.20946702	     -3.29469205	    -10.38931991	     23.80012360	      0.00000000	      0.00000000	     -2.85102660	     -0.10613041	     -6.78905943	     65.15912228	    -37.81939323	     -6.36549722	    110.00687923	     81.66176687	      4.71407947	      9.74291965	     92.68838746	    -16.99397078	     29.90630179	     92.65995689	     76.56922693	    -20.17561596	     17.49309548
      3.45238095	     -5.34483212	      2.46772807	     81.30633989	      0.25415489	      0.83013335	      0.70491170	      8.35984514	     -2.98009102	     15.28419709	     15.40458402	      0.26886071	     18.92734882	     -9.04462241	      0.00000000	      1.29175489	      2.54673657	    -17.27046264	      4.38669259	      0.07656223	     19.80457621	      8.16695879	      0.00000000	     -0.42741632	     -0.97884555	      4.64830187	     -0.79375485	     -1.30186459	      4.93882074	     -0.70220227	     -2.37996508	      4.93882074	     -0.48849411	     -2.37996508	      4.06726414	     -0.39689879	     -1.99606185	      3.77674527	     -0.24422569	     -1.51623176	      3.48622640	     -3.05299203	    -11.07289666	     25.85246052	      0.00000000	      0.00000000	     -3.39679951	     -0.66443902	     -8.11992085	     56.13456272	    -38.32009913	    -14.95745091	    121.59446146	     83.25884266	      3.33476781	     10.62193479	     96.62506383	    -12.47197383	     31.19830892	     76.63672285	     63.08744460	    -21.89633795	     10.66161939
      3.47619048	     -5.35507309	      2.55282353	     82.22376975	      0.25366461	      0.82947709	      0.70408452	      8.30613909	     -3.01960187	     14.73762150	     15.90569957	      0.27760683	     19.35122603	     -9.63988542	      0.00000000	      1.20984564	      2.57866224	    -15.75226164	      4.51052000	      0.07872343	     19.94085848	      7.32884279	      0.00000000	     -0.37191608	     -1.05936182	      4.56591895	     -0.69068536	     -1.40895123	      4.85128888	     -0.61102093	     -2.57573234	      4.85128888	     -0.42506289	     -2.57573234	      3.99517908	     -0.34536127	     -2.16025063	      3.70980914	     -0.21251285	     -1.64095146	      3.42443921	     -2.65655938	    -11.98371282	     25.39427140	      0.00000000	      0.00000000	     -3.80794959	     -1.16154808	     -8.48651842	     46.99828217	    -35.77440012	    -22.84715537	    131.23570974	     85.34184275	      0.57092516	     12.51278068	    100.30790050	     -8.92699430	     33.01512553	     63.14042426	     54.12275263	    -19.62182945	      1.74540819
      3.50000000	     -5.20942082	      2.51091873	     83.36926276	      0.25270394	      0.82866645	      0.70250691	      8.23699626	     -2.94953846	     13.87024576	     16.34420569	      0.28526020	     19.62413451	    -10.29375286	      0.00000000	      1.20173359	      2.43367838	    -14.58976451	      4.63288953	      0.08085918	     20.26465528	      7.31645373	      0.00000000	     -0.28832888	     -1.12802206	      4.42776442	     -0.53545556	     -1.50026934	      4.70449970	     -0.47369552	     -2.74267284	      4.70449970	     -0.32953108	     -2.74267284	      3.87429387	     -0.26774220	     -2.30026259	      3.59755859	     -0.16475112	     -1.74730618	      3.32082332	     -2.05950435	    -12.76041118	     24.62589739	      0.00000000	      0.00000000	     -3.80772320	     -1.45105717	     -8.73918334	     34.55294508	    -31.78818869	    -31.57102709	    139.33191220	     87.03250084	     -0.66703514	     14.78921089	     99.74757223	     -6.87002834	     34.18261946	     60.16592384	     55.61494543	    -18.96550580	     -2.52957385
      3.52380952	     -4.87699108	      2.14700156	     84.47359957	      0.25109961	      0.82723835	      0.70006467	      8.40541982	     -2.71543800	     12.88298408	     16.72064769	      0.29183036	     19.81603467	    -10.83496924	      0.00000000	      1.45265288	      2.15338226	    -12.66136571	      4.65902805	      0.08131538	     20.64473531	      6.18067603	      0.00000000	     -0.18933106	     -1.12977261	      4.66121606	     -0.35160672	     -1.50259757	      4.95254207	     -0.31105200	     -2.74692912	      4.95254207	     -0.21638647	     -2.74692912	      4.07856405	     -0.17581283	     -2.30383230	      3.78723805	     -0.10818377	     -1.75001777	      3.49591205	     -1.35237286	    -12.78021370	     25.92428538	      0.00000000	      0.00000000	     -2.98246686	     -2.45917742	     -9.48241634	     17.06430144	    -26.57948714	    -41.98866963	    145.46895601	     87.66378839	      0.15179051	     16.31851681	     92.75555531	     -6.35143884	     34.35322591	     71.00496909	     67.53560307	    -19.22383134	      1.70401114
      3.54761905	     -4.23502601	      1.78590262	     85.22745500	      0.24856166	      0.82473334	      0.69790750	      8.66798756	     -2.23213675	     11.91372243	     17.19207097	      0.30005824	     20.12098585	    -10.98158389	      0.00000000	      1.70184096	      1.61615212	    -11.25765508	      4.67185864	      0.08153932	     21.52252796	      5.37303926	      0.00000000	     -0.12403155	     -0.99369422	      4.80032894	     -0.23033899	     -1.32161332	      5.10034950	     -0.20377143	     -2.41606814	      5.10034950	     -0.14175566	     -2.41606814	      4.20028782	     -0.11517570	     -2.02634126	      3.90026726	     -0.07087163	     -1.53923235	      3.60024671	     -0.88594495	    -11.24086781	     26.69798947	      0.00000000	      0.00000000	     -0.49454945	     -5.92914674	     -6.81588272	      0.96906945	    -19.40773127	    -46.29927746	    146.76716117	     87.95793979	      1.73838832	     16.70240014	     81.72894807	     -9.87362393	     36.45384408	     92.07345127	     77.50871065	    -17.91820027	     15.33944998
      3.57142857	     -3.42512877	      1.70393092	     85.78509751	      0.24535234	      0.82210077	      0.69695914	      8.75748120	     -1.67105766	     10.86436133	     17.69724219	      0.30887514	     20.42494231	    -10.79685656	      0.00000000	      1.77207537	      0.96722246	    -10.04638855	      4.75984008	      0.08307488	     22.45709023	      4.47034434	      0.00000000	     -0.09911182	     -0.79463849	      4.34939234	     -0.18406057	     -1.05686920	      4.62122937	     -0.16283081	     -1.93208403	      4.62122937	     -0.11327490	     -1.93208403	      3.80571830	     -0.09203524	     -1.62042681	      3.53388128	     -0.05663250	     -1.23089503	      3.26204426	     -0.70794584	     -8.98910956	     24.19001540	      0.00000000	      0.00000000	      3.81996103	     -9.59281575	      0.10049495	     -9.43987325	    -14.53063200	    -40.18786453	    141.37218863	     88.13775402	     -0.30128984	     14.94753414	     69.47526735	    -16.68814172	     41.97960390	    113.03869292	     72.84822562	    -15.41175987	     26.99471223
      3.59523810	     -2.74565243	      1.70473207	     86.21957688	      0.24290786	      0.82025714	      0.69627891	      8.73678225	     -1.24154603	      9.73621710	     18.03965242	      0.31485133	     20.66486562	    -10.21047347	      0.00000000	      1.76161114	      0.44829785	     -8.44147926	      4.81972899	      0.08412014	     23.01738168	      2.88476654	      0.00000000	     -0.06692830	     -0.66059006	      3.55618654	     -0.12429254	     -0.87858477	      3.77844820	     -0.10995650	     -1.60615866	      3.77844820	     -0.07649235	     -1.60615866	      3.11166322	     -0.06214962	     -1.34707524	      2.88940156	     -0.03824283	     -1.02325400	      2.66713990	     -0.47806215	     -7.47272683	     19.77844267	      0.00000000	      0.00000000	      8.30373239	    -10.83140540	      6.72869142	    -14.04220257	    -13.82004021	    -29.16093361	    130.32709898	     88.00762249	     -6.19047079	      8.97130154	     57.03725176	    -23.37507789	     52.44035367	    124.64966408	     60.64574578	    -12.76295950	     30.35818685
